HIERARCHY
ROOT Hips
{
	OFFSET 0.00 0.00 0.00
	CHANNELS 6 Xposition Yposition Zposition Xrotation Yrotation Zrotation
	JOINT Spine
	{
		OFFSET 0.00000 3.24121 0.00000
		CHANNELS 3 Xrotation Yrotation Zrotation
		JOINT Head
		{
			OFFSET 0.00000 18.38296 0.00000
			CHANNELS 3 Xrotation Yrotation Zrotation
			End Site
			{
				OFFSET 0.00000 4.52755 0.00000
			}
		}
		JOINT LeftShoulder
		{
			OFFSET 0.00000 12.82826 0.00000
			CHANNELS 3 Xrotation Yrotation Zrotation
			JOINT LeftArm
			{
				OFFSET 7.74805 0.00000 0.00000
				CHANNELS 3 Xrotation Yrotation Zrotation
				JOINT LeftForeArm
				{
					OFFSET 10.63561 0.00000 0.00000
					CHANNELS 3 Yrotation Zrotation Xrotation
					JOINT LeftHand
					{
						OFFSET 8.34675 0.00000 0.00000
						CHANNELS 3 Xrotation Yrotation Zrotation
						JOINT LeftHandThumb1
						{
							OFFSET 0.00000 0.00000 0.00000
							CHANNELS 3 Xrotation Zrotation Yrotation
							End Site
							{
								OFFSET 0.00000 0.00000 3.93700
							}
						}
						End Site
						{
							OFFSET 3.93700 0.00000 0.00000
						}
					}
				}
			}
		}
		JOINT RightShoulder
		{
			OFFSET 0.00000 12.82826 0.00000
			CHANNELS 3 Xrotation Yrotation Zrotation
			JOINT RightArm
			{
				OFFSET -7.74805 0.00000 0.00000
				CHANNELS 3 Xrotation Yrotation Zrotation
				JOINT RightForeArm
				{
					OFFSET -10.63561 0.00000 0.00000
					CHANNELS 3 Yrotation Zrotation Xrotation
					JOINT RightHand
					{
						OFFSET -8.34675 0.00000 0.00000
						CHANNELS 3 Xrotation Yrotation Zrotation
						JOINT RightHandThumb1
						{
							OFFSET 0.00000 0.00000 0.00000
							CHANNELS 3 Xrotation Zrotation Yrotation
							End Site
							{
								OFFSET 0.00000 0.00000 3.93700
							}
						}
						End Site
						{
							OFFSET -3.93700 0.00000 0.00000
						}
					}
				}
			}
		}
	}
	JOINT LeftUpLeg
	{
		OFFSET 3.43402 0.00000 0.00000
		CHANNELS 3 Xrotation Yrotation Zrotation
		JOINT LeftLeg
		{
			OFFSET 0.00000 -15.71302 0.00000
			CHANNELS 3 Xrotation Yrotation Zrotation
			JOINT LeftFoot
			{
				OFFSET 0.00000 -14.43512 0.00000
				CHANNELS 3 Xrotation Yrotation Zrotation
				JOINT LeftToeBase
				{
					OFFSET 0.00000 -1.27828 4.77061
					CHANNELS 3 Xrotation Yrotation Zrotation
					End Site
					{
						OFFSET 0.00000 0.00000 2.95275
					}
				}
			}
		}
	}
	JOINT RightUpLeg
	{
		OFFSET -3.43402 0.00000 0.00000
		CHANNELS 3 Xrotation Yrotation Zrotation
		JOINT RightLeg
		{
			OFFSET 0.00000 -15.71302 0.00000
			CHANNELS 3 Xrotation Yrotation Zrotation
			JOINT RightFoot
			{
				OFFSET 0.00000 -14.43512 0.00000
				CHANNELS 3 Xrotation Yrotation Zrotation
				JOINT RightToeBase
				{
					OFFSET 0.00000 -1.27828 4.77061
					CHANNELS 3 Xrotation Yrotation Zrotation
					End Site
					{
						OFFSET 0.00000 0.00000 2.95275
					}
				}
			}
		}
	}
}
MOTION
Frames: 17
Frame Time: 0.008333
 -2.0350 32.4333 -3.6752 31.9828 4.2698 -2.5458 -37.5667 -6.3403 -0.2172 10.5962 -1.8096 -4.8616 27.7677 33.5563 23.6210 -69.2445 -6.4833 -37.8787 19.6472 0.0000 92.9523 -0.1733 0.1105 57.4924 33.1476 -0.0000 26.2537 28.0368 -32.2972 -22.5260 -53.0497 13.1557 45.5168 -6.3449 -0.0000 -15.1441 -1.1935 7.0961 9.5729 32.8623 0.0000 -24.3270 -27.3311 -0.7231 1.6880 0.5372 0.0000 -0.0000 -6.9255 -2.2399 -3.2870 5.2892 -0.0000 0.0000 -25.4240 -8.3483 1.8259 -3.0513 -0.0000 -0.0000 -6.6728 -2.2718 -1.6852 11.5976 0.0000 -0.0000
 -2.0315 32.4326 -3.6783 31.9774 4.2852 -2.5434 -37.5476 -6.3449 -0.2159 10.5418 -1.8283 -4.8410 27.7786 33.5863 23.5946 -69.1972 -6.6118 -37.8540 19.5916 0.0000 92.7240 0.0882 -0.0567 57.2588 33.1476 -0.0000 26.2537 28.0397 -32.3056 -22.5352 -53.0349 13.1637 45.4975 -6.3619 -0.0000 -15.1864 -1.1878 7.0865 9.5402 32.8623 0.0000 -24.3270 -27.3400 -0.7572 1.6724 0.5573 -0.0000 0.0000 -6.9440 -2.2195 -3.2987 5.3257 0.0000 0.0000 -25.4014 -8.3005 1.8074 -3.0968 -0.0000 0.0000 -6.6211 -2.2880 -1.7545 11.4670 -0.0000 -0.0000
 -2.0268 32.4326 -3.6799 31.9741 4.3170 -2.5545 -37.5362 -6.3555 -0.2156 10.4949 -1.8653 -4.8004 27.7962 33.6084 23.5570 -69.1831 -6.8631 -37.8371 19.7847 0.0000 92.7477 0.0142 -0.0091 57.4183 33.1476 -0.0000 26.2537 27.9969 -32.2788 -22.5822 -52.9482 13.0944 45.4517 -6.3169 -0.0000 -15.1949 -1.1850 7.0722 9.5370 32.8623 0.0000 -24.3270 -27.3529 -0.7897 1.6583 0.5796 0.0000 -0.0000 -6.9463 -2.2154 -3.2783 5.3066 -0.0000 -0.0000 -25.4113 -8.4110 1.7939 -3.0649 -0.0000 -0.0000 -6.6831 -2.2513 -1.6312 11.5962 0.0000 0.0000
 -2.0235 32.4325 -3.6820 31.9741 4.3441 -2.5604 -37.5273 -6.3738 -0.2228 10.4443 -1.8973 -4.7565 27.6869 33.5913 23.6181 -69.0854 -6.9678 -37.8103 19.8134 0.0000 92.8254 -0.0562 0.0360 57.3652 33.1476 -0.0000 26.2537 28.0107 -32.2635 -22.5867 -52.9229 13.0681 45.3945 -6.3071 -0.0000 -15.1922 -1.1929 7.0905 9.5756 32.8623 0.0000 -24.3270 -27.3667 -0.8212 1.6431 0.5965 0.0000 -0.0000 -6.9380 -2.2260 -3.2507 5.2772 -0.0000 0.0000 -25.4079 -8.4393 1.7796 -3.0719 0.0000 -0.0000 -6.6911 -2.2460 -1.6042 11.6161 0.0000 0.0000
 -2.0199 32.4319 -3.6840 31.9750 4.3493 -2.5616 -37.5186 -6.3670 -0.2153 10.3918 -1.9396 -4.7313 27.7286 33.6429 23.5604 -69.2058 -7.0451 -37.7521 19.7572 0.0000 92.6937 0.2973 -0.1916 57.1983 33.1476 -0.0000 26.2537 28.0346 -32.2745 -22.5985 -52.9245 13.0436 45.3509 -6.3011 -0.0000 -15.1171 -1.1934 7.0776 9.5965 32.8623 0.0000 -24.3270 -27.3800 -0.8231 1.6322 0.6219 -0.0000 -0.0000 -6.9189 -2.2959 -3.1457 5.1283 0.0000 0.0000 -25.4031 -8.4095 1.7706 -3.0890 0.0000 -0.0000 -6.6511 -2.2341 -1.7151 11.5015 0.0000 -0.0000
 -2.0177 32.4318 -3.6866 31.9771 4.3649 -2.5649 -37.5096 -6.3561 -0.2259 10.3365 -1.9995 -4.6726 27.6957 33.6568 23.5742 -69.2920 -7.0356 -37.6831 19.5955 0.0000 92.4239 0.6280 -0.4085 56.9586 33.1476 -0.0000 26.2537 28.0556 -32.2720 -22.6019 -52.8603 13.0534 45.2792 -6.3188 -0.0000 -15.1902 -1.2143 7.1283 9.6935 32.8623 0.0000 -24.3270 -27.3934 -0.8429 1.6261 0.6265 0.0000 -0.0000 -6.9495 -2.2372 -3.2440 5.2889 -0.0000 0.0000 -25.4027 -8.4217 1.7625 -3.1009 0.0000 0.0000 -6.6834 -2.2798 -1.6200 11.6326 0.0000 -0.0000
 -2.0137 32.4315 -3.6888 31.9820 4.3776 -2.5647 -37.5065 -6.3459 -0.2339 10.2910 -2.0624 -4.6192 27.7326 33.7060 23.5132 -69.3585 -7.3240 -37.6094 19.7649 0.0000 92.3619 0.7996 -0.5209 56.9196 33.1476 -0.0000 26.2537 28.0568 -32.2684 -22.6449 -52.7972 13.0282 45.2400 -6.2889 -0.0000 -15.0225 -1.1982 7.1297 9.5658 32.8623 0.0000 -24.3270 -27.4093 -0.8433 1.6106 0.6381 -0.0000 -0.0000 -6.9582 -2.2293 -3.2363 5.3185 0.0000 0.0000 -25.4066 -8.4320 1.7489 -3.1088 -0.0000 -0.0000 -6.6948 -2.2851 -1.5957 11.6700 0.0000 -0.0000
 -2.0108 32.4314 -3.6904 31.9864 4.3849 -2.5715 -37.5054 -6.3245 -0.2376 10.2476 -2.1557 -4.5597 27.6962 33.7337 23.5191 -69.3991 -7.4465 -37.5370 19.6499 0.0000 92.1150 1.0672 -0.7037 56.6039 33.1476 -0.0000 26.2537 28.0814 -32.2774 -22.6713 -52.7272 13.0576 45.1898 -6.3155 -0.0000 -14.9589 -1.1998 7.1420 9.5617 32.8623 0.0000 -24.3270 -27.4191 -0.8507 1.6092 0.6430 0.0000 -0.0000 -6.9638 -2.2372 -3.2485 5.3316 -0.0000 0.0000 -25.4126 -8.4467 1.7451 -3.1088 0.0000 0.0000 -6.6858 -2.2804 -1.5790 11.6360 -0.0000 -0.0000
 -2.0079 32.4313 -3.6919 31.9954 4.3985 -2.5710 -37.5072 -6.3000 -0.2530 10.1953 -2.2647 -4.5013 27.6929 33.7504 23.4844 -69.4588 -7.6464 -37.4050 19.6407 0.0000 91.9754 1.1880 -0.7860 56.5142 33.1476 -0.0000 26.2537 28.1002 -32.3001 -22.6996 -52.6541 13.1373 45.1437 -6.4136 -0.0000 -15.0132 -1.2247 7.2468 9.6189 32.8623 0.0000 -24.3270 -27.4313 -0.8500 1.6005 0.6448 0.0000 0.0000 -7.0278 -2.2075 -3.4374 5.6182 0.0000 0.0000 -25.4159 -8.4776 1.7356 -3.1234 -0.0000 0.0000 -6.6836 -2.2674 -1.5847 11.6427 0.0000 -0.0000
 -2.0035 32.4311 -3.6932 32.0048 4.3982 -2.5725 -37.5147 -6.2704 -0.2576 10.1586 -2.3510 -4.4424 27.6437 33.7713 23.4979 -69.5129 -7.8176 -37.2885 19.6087 0.0000 91.7933 1.4952 -0.9976 56.2959 33.1476 -0.0000 26.2537 28.1351 -32.3206 -22.7342 -52.5938 13.1879 45.1122 -6.4375 -0.0000 -14.8920 -1.1944 7.2121 9.4296 32.8623 0.0000 -24.3270 -27.4446 -0.8403 1.5900 0.6458 0.0000 -0.0000 -6.9555 -2.2700 -3.2529 5.3117 0.0000 -0.0000 -25.4275 -8.4935 1.7275 -3.1224 -0.0000 0.0000 -6.6843 -2.2493 -1.5876 11.6246 0.0000 0.0000
 -2.0012 32.4311 -3.6955 32.0143 4.3888 -2.5680 -37.5158 -6.2244 -0.2737 10.1066 -2.4714 -4.3652 27.6016 33.7937 23.5104 -69.6090 -7.9707 -37.1518 19.5734 0.0000 91.9038 1.5630 -1.0445 56.2536 33.1476 -0.0000 26.2537 28.1960 -32.3523 -22.7412 -52.5685 13.2512 45.0582 -6.4993 -0.0000 -14.8368 -1.2012 7.2469 9.4372 32.8623 0.0000 -24.3270 -27.4580 -0.8198 1.5863 0.6462 0.0000 -0.0000 -6.9624 -2.2858 -3.2676 5.3416 -0.0000 0.0000 -25.4406 -8.4763 1.7241 -3.1235 -0.0000 -0.0000 -6.6483 -2.2376 -1.6889 11.5069 -0.0000 0.0000
 -1.9988 32.4307 -3.6972 32.0296 4.3872 -2.5654 -37.5274 -6.1781 -0.2960 10.0618 -2.5985 -4.3008 27.4976 33.8182 23.5927 -69.6960 -7.9795 -37.0244 19.3235 0.0000 91.8263 1.8825 -1.2680 56.0492 33.1476 -0.0000 26.2537 28.1854 -32.3598 -22.7930 -52.4419 13.3416 45.0221 -6.6002 -0.0000 -14.9260 -1.2215 7.4453 9.3444 32.8623 0.0000 -24.3270 -27.4755 -0.8181 1.5808 0.6480 0.0000 0.0000 -6.9715 -2.2805 -3.2975 5.3643 -0.0000 -0.0000 -25.4580 -8.4925 1.7169 -3.1287 -0.0000 -0.0000 -6.6452 -2.2136 -1.6727 11.5063 -0.0000 -0.0000
 -1.9969 32.4308 -3.6989 32.0459 4.3892 -2.5716 -37.5384 -6.1356 -0.3181 10.0139 -2.7259 -4.2199 27.4138 33.8059 23.6380 -69.6237 -8.2959 -36.8515 19.3824 0.0000 91.9225 1.7971 -1.2077 56.1078 33.1476 -0.0000 26.2537 28.1781 -32.3789 -22.8405 -52.3941 13.3336 44.9985 -6.5804 -0.0000 -14.7953 -1.1898 7.4060 9.1528 32.8623 0.0000 -24.3270 -27.4948 -0.8124 1.5806 0.6473 -0.0000 0.0000 -6.9681 -2.2924 -3.2816 5.3369 -0.0000 0.0000 -25.4757 -8.5184 1.7171 -3.1314 0.0000 0.0000 -6.6764 -2.2388 -1.5511 11.6499 -0.0000 0.0000
 -1.9938 32.4304 -3.7001 32.0608 4.3929 -2.5713 -37.5498 -6.0971 -0.3422 9.9625 -2.8662 -4.1613 27.3792 33.8382 23.6736 -69.7139 -8.4471 -36.6848 19.2834 0.0000 91.7564 2.0355 -1.3775 55.9262 33.1476 -0.0000 26.2537 28.1678 -32.4059 -22.8924 -52.3070 13.4326 44.9703 -6.6369 -0.0000 -14.8213 -1.1676 7.4102 8.9803 32.8623 0.0000 -24.3270 -27.5195 -0.7861 1.5723 0.6612 0.0000 0.0000 -6.9738 -2.3287 -3.2917 5.3484 0.0000 -0.0000 -25.4905 -8.5486 1.7083 -3.1337 -0.0000 0.0000 -6.6865 -2.2322 -1.5257 11.6543 -0.0000 0.0000
 -1.9921 32.4305 -3.7025 32.1009 4.3882 -2.5684 -37.5851 -6.0646 -0.3720 9.9092 -2.9673 -4.1029 27.2936 33.8756 23.7366 -69.6843 -8.6329 -36.5189 19.1313 0.0000 91.7312 2.0502 -1.3868 55.9389 33.1476 -0.0000 26.2537 28.1801 -32.4384 -22.9171 -52.3319 13.4638 44.9398 -6.6637 -0.0000 -14.7578 -1.1754 7.5112 8.9202 32.8623 0.0000 -24.3270 -27.5700 -0.7717 1.5675 0.6733 -0.0000 -0.0000 -6.9816 -2.3404 -3.3156 5.3472 -0.0000 -0.0000 -25.5379 -8.5615 1.7014 -3.1295 0.0000 0.0000 -6.6866 -2.2170 -1.5099 11.6506 -0.0000 0.0000
 -1.9898 32.4307 -3.7059 32.1427 4.3833 -2.5681 -37.6211 -6.0417 -0.3977 9.8597 -3.0651 -4.0509 27.3351 33.9149 23.6624 -69.6974 -9.0465 -36.2720 19.2234 0.0000 91.4096 2.1977 -1.4849 55.9700 33.1476 -0.0000 26.2537 28.1572 -32.4457 -22.9667 -52.3481 13.4583 44.9108 -6.6617 -0.0000 -14.7162 -1.1675 7.5516 8.8147 32.8623 0.0000 -24.3270 -27.6205 -0.7672 1.5605 0.6785 -0.0000 -0.0000 -6.9751 -2.3443 -3.3090 5.3499 0.0000 -0.0000 -25.5886 -8.5926 1.6934 -3.1273 0.0000 0.0000 -6.6957 -2.1840 -1.4745 11.7122 -0.0000 0.0000
 -1.9872 32.4307 -3.7084 32.1727 4.3800 -2.5720 -37.6451 -6.0119 -0.4225 9.8051 -3.1592 -3.9946 27.2711 33.9593 23.6990 -69.6282 -9.3879 -36.1055 19.2147 0.0000 91.2454 2.1119 -1.4280 55.9504 33.1476 -0.0000 26.2537 28.1684 -32.4743 -22.9687 -52.3672 13.5452 44.8586 -6.7141 -0.0000 -14.7639 -1.1754 7.6988 8.7075 32.8623 0.0000 -24.3270 -27.6608 -0.7725 1.5555 0.7004 0.0000 0.0000 -6.9488 -2.4126 -3.1657 5.1817 -0.0000 -0.0000 -25.6204 -8.6019 1.6900 -3.1313 0.0000 -0.0000 -6.6890 -2.1786 -1.4587 11.6906 -0.0000 0.0000
